<mxfile host="app.diagrams.net" agent="Mozilla/5.0 (Windows NT 10.0; Win64; x64) AppleWebKit/537.36 (KHTML, like Gecko) Chrome/137.0.0.0 Safari/537.36" version="27.1.4">
  <diagram name="Page-1" id="wEKKutVb8-V5kIAyvYF1">
    <mxGraphModel dx="1042" dy="596" grid="1" gridSize="10" guides="1" tooltips="1" connect="1" arrows="1" fold="1" page="1" pageScale="1" pageWidth="827" pageHeight="1169" math="0" shadow="0">
      <root>
        <mxCell id="0" />
        <mxCell id="1" parent="0" />
        <mxCell id="1StV8Vy0w_5WwPUcjHgf-1" value="Tile" style="swimlane;fontStyle=1;align=center;verticalAlign=top;childLayout=stackLayout;horizontal=1;startSize=26;horizontalStack=0;resizeParent=1;resizeParentMax=0;resizeLast=0;collapsible=1;marginBottom=0;whiteSpace=wrap;html=1;" parent="1" vertex="1">
          <mxGeometry x="25" y="70" width="160" height="140" as="geometry">
            <mxRectangle x="110" y="120" width="60" height="30" as="alternateBounds" />
          </mxGeometry>
        </mxCell>
        <mxCell id="1StV8Vy0w_5WwPUcjHgf-2" value="+ wall_top&lt;div&gt;+ wall_bottom&lt;/div&gt;&lt;div&gt;+ wall_left&lt;/div&gt;&lt;div&gt;+ wall_right&lt;/div&gt;&lt;div&gt;+ point&lt;/div&gt;" style="text;strokeColor=none;fillColor=none;align=left;verticalAlign=top;spacingLeft=4;spacingRight=4;overflow=hidden;rotatable=0;points=[[0,0.5],[1,0.5]];portConstraint=eastwest;whiteSpace=wrap;html=1;" parent="1StV8Vy0w_5WwPUcjHgf-1" vertex="1">
          <mxGeometry y="26" width="160" height="80" as="geometry" />
        </mxCell>
        <mxCell id="1StV8Vy0w_5WwPUcjHgf-3" value="" style="line;strokeWidth=1;fillColor=none;align=left;verticalAlign=middle;spacingTop=-1;spacingLeft=3;spacingRight=3;rotatable=0;labelPosition=right;points=[];portConstraint=eastwest;strokeColor=inherit;" parent="1StV8Vy0w_5WwPUcjHgf-1" vertex="1">
          <mxGeometry y="106" width="160" height="8" as="geometry" />
        </mxCell>
        <mxCell id="1StV8Vy0w_5WwPUcjHgf-4" value="&lt;font&gt;+ __init__(self)&lt;/font&gt;" style="text;strokeColor=none;fillColor=none;align=left;verticalAlign=top;spacingLeft=4;spacingRight=4;overflow=hidden;rotatable=0;points=[[0,0.5],[1,0.5]];portConstraint=eastwest;whiteSpace=wrap;html=1;fontColor=default;" parent="1StV8Vy0w_5WwPUcjHgf-1" vertex="1">
          <mxGeometry y="114" width="160" height="26" as="geometry" />
        </mxCell>
        <mxCell id="1StV8Vy0w_5WwPUcjHgf-5" value="Ghost" style="swimlane;fontStyle=1;align=center;verticalAlign=top;childLayout=stackLayout;horizontal=1;startSize=26;horizontalStack=0;resizeParent=1;resizeParentMax=0;resizeLast=0;collapsible=1;marginBottom=0;whiteSpace=wrap;html=1;" parent="1" vertex="1">
          <mxGeometry x="510" y="370" width="270" height="258" as="geometry">
            <mxRectangle x="660" y="290" width="70" height="30" as="alternateBounds" />
          </mxGeometry>
        </mxCell>
        <mxCell id="1StV8Vy0w_5WwPUcjHgf-6" value="+ x&lt;div&gt;+ y&lt;/div&gt;&lt;div&gt;+ image_file&lt;/div&gt;&lt;div&gt;+ image&lt;/div&gt;&lt;div&gt;+ last_move&lt;/div&gt;&lt;div&gt;+ ghost_type&lt;/div&gt;&lt;div&gt;+ special_active&lt;/div&gt;&lt;div&gt;+ special_start_time&lt;/div&gt;" style="text;strokeColor=none;fillColor=none;align=left;verticalAlign=top;spacingLeft=4;spacingRight=4;overflow=hidden;rotatable=0;points=[[0,0.5],[1,0.5]];portConstraint=eastwest;whiteSpace=wrap;html=1;" parent="1StV8Vy0w_5WwPUcjHgf-5" vertex="1">
          <mxGeometry y="26" width="270" height="124" as="geometry" />
        </mxCell>
        <mxCell id="1StV8Vy0w_5WwPUcjHgf-7" value="" style="line;strokeWidth=1;fillColor=none;align=left;verticalAlign=middle;spacingTop=-1;spacingLeft=3;spacingRight=3;rotatable=0;labelPosition=right;points=[];portConstraint=eastwest;strokeColor=inherit;" parent="1StV8Vy0w_5WwPUcjHgf-5" vertex="1">
          <mxGeometry y="150" width="270" height="8" as="geometry" />
        </mxCell>
        <mxCell id="1StV8Vy0w_5WwPUcjHgf-8" value="+ __init__(self, x, y, image_file = &quot;duch.png&quot;, ghost_type = None&lt;div&gt;+ can_pass_walls(self)&lt;/div&gt;&lt;div&gt;+ move_towards(self, player, map_obj)&lt;/div&gt;&lt;div&gt;+ update_special_state(self, current_time)&lt;/div&gt;&lt;div&gt;+ draw(self, screen, ox, oy)&lt;/div&gt;" style="text;strokeColor=none;fillColor=none;align=left;verticalAlign=top;spacingLeft=4;spacingRight=4;overflow=hidden;rotatable=0;points=[[0,0.5],[1,0.5]];portConstraint=eastwest;whiteSpace=wrap;html=1;" parent="1StV8Vy0w_5WwPUcjHgf-5" vertex="1">
          <mxGeometry y="158" width="270" height="100" as="geometry" />
        </mxCell>
        <mxCell id="1StV8Vy0w_5WwPUcjHgf-9" value="Map" style="swimlane;fontStyle=1;align=center;verticalAlign=top;childLayout=stackLayout;horizontal=1;startSize=26;horizontalStack=0;resizeParent=1;resizeParentMax=0;resizeLast=0;collapsible=1;marginBottom=0;whiteSpace=wrap;html=1;" parent="1" vertex="1">
          <mxGeometry x="400" y="100" width="220" height="200" as="geometry" />
        </mxCell>
        <mxCell id="1StV8Vy0w_5WwPUcjHgf-10" value="+ level&lt;div&gt;+ size&amp;nbsp;&lt;/div&gt;&lt;div&gt;+ grid&lt;/div&gt;" style="text;strokeColor=none;fillColor=none;align=left;verticalAlign=top;spacingLeft=4;spacingRight=4;overflow=hidden;rotatable=0;points=[[0,0.5],[1,0.5]];portConstraint=eastwest;whiteSpace=wrap;html=1;" parent="1StV8Vy0w_5WwPUcjHgf-9" vertex="1">
          <mxGeometry y="26" width="220" height="54" as="geometry" />
        </mxCell>
        <mxCell id="1StV8Vy0w_5WwPUcjHgf-11" value="" style="line;strokeWidth=1;fillColor=none;align=left;verticalAlign=middle;spacingTop=-1;spacingLeft=3;spacingRight=3;rotatable=0;labelPosition=right;points=[];portConstraint=eastwest;strokeColor=inherit;" parent="1StV8Vy0w_5WwPUcjHgf-9" vertex="1">
          <mxGeometry y="80" width="220" height="8" as="geometry" />
        </mxCell>
        <mxCell id="1StV8Vy0w_5WwPUcjHgf-12" value="+ __init__(self, level)&lt;div&gt;# _gen_maze(self)&lt;/div&gt;&lt;div&gt;# _add_extra_passages(self, extra = 5)&lt;/div&gt;&lt;div&gt;# _break_long_walls(self, max_len = 3)&lt;/div&gt;&lt;div&gt;# _place_points(self)&lt;/div&gt;&lt;div&gt;# _mark_accessible(self)&lt;/div&gt;&lt;div&gt;+ draw(self, screen, ox, oy)&lt;/div&gt;" style="text;strokeColor=none;fillColor=none;align=left;verticalAlign=top;spacingLeft=4;spacingRight=4;overflow=hidden;rotatable=0;points=[[0,0.5],[1,0.5]];portConstraint=eastwest;whiteSpace=wrap;html=1;" parent="1StV8Vy0w_5WwPUcjHgf-9" vertex="1">
          <mxGeometry y="88" width="220" height="112" as="geometry" />
        </mxCell>
        <mxCell id="1StV8Vy0w_5WwPUcjHgf-13" value="Player" style="swimlane;fontStyle=1;align=center;verticalAlign=top;childLayout=stackLayout;horizontal=1;startSize=26;horizontalStack=0;resizeParent=1;resizeParentMax=0;resizeLast=0;collapsible=1;marginBottom=0;whiteSpace=wrap;html=1;" parent="1" vertex="1">
          <mxGeometry x="25" y="320" width="170" height="150" as="geometry">
            <mxRectangle x="630" y="100" width="70" height="30" as="alternateBounds" />
          </mxGeometry>
        </mxCell>
        <mxCell id="1StV8Vy0w_5WwPUcjHgf-14" value="+ x&lt;div&gt;+ y&lt;/div&gt;&lt;div&gt;+ score&lt;/div&gt;&lt;div&gt;+ lives&lt;/div&gt;" style="text;strokeColor=none;fillColor=none;align=left;verticalAlign=top;spacingLeft=4;spacingRight=4;overflow=hidden;rotatable=0;points=[[0,0.5],[1,0.5]];portConstraint=eastwest;whiteSpace=wrap;html=1;" parent="1StV8Vy0w_5WwPUcjHgf-13" vertex="1">
          <mxGeometry y="26" width="170" height="64" as="geometry" />
        </mxCell>
        <mxCell id="1StV8Vy0w_5WwPUcjHgf-15" value="" style="line;strokeWidth=1;fillColor=none;align=left;verticalAlign=middle;spacingTop=-1;spacingLeft=3;spacingRight=3;rotatable=0;labelPosition=right;points=[];portConstraint=eastwest;strokeColor=inherit;" parent="1StV8Vy0w_5WwPUcjHgf-13" vertex="1">
          <mxGeometry y="90" width="170" height="8" as="geometry" />
        </mxCell>
        <mxCell id="1StV8Vy0w_5WwPUcjHgf-16" value="+ __init__(self, x, y)&lt;div&gt;+ move(self, dx, dy, map_obj)&lt;/div&gt;&lt;div&gt;+ draw(self, screen, ox, oy)&lt;/div&gt;" style="text;strokeColor=none;fillColor=none;align=left;verticalAlign=top;spacingLeft=4;spacingRight=4;overflow=hidden;rotatable=0;points=[[0,0.5],[1,0.5]];portConstraint=eastwest;whiteSpace=wrap;html=1;" parent="1StV8Vy0w_5WwPUcjHgf-13" vertex="1">
          <mxGeometry y="98" width="170" height="52" as="geometry" />
        </mxCell>
        <mxCell id="1StV8Vy0w_5WwPUcjHgf-17" value="Game" style="swimlane;fontStyle=1;align=center;verticalAlign=top;childLayout=stackLayout;horizontal=1;startSize=26;horizontalStack=0;resizeParent=1;resizeParentMax=0;resizeLast=0;collapsible=1;marginBottom=0;whiteSpace=wrap;html=1;" parent="1" vertex="1">
          <mxGeometry x="280" y="400" width="160" height="348" as="geometry">
            <mxRectangle x="530" y="520" width="70" height="30" as="alternateBounds" />
          </mxGeometry>
        </mxCell>
        <mxCell id="1StV8Vy0w_5WwPUcjHgf-18" value="+ ox&lt;div&gt;+ oy&lt;/div&gt;&lt;div&gt;+ level&lt;/div&gt;&lt;div&gt;+ map&lt;/div&gt;&lt;div&gt;+ screen&lt;/div&gt;&lt;div&gt;+ ghosts&lt;/div&gt;&lt;div&gt;+ player&lt;/div&gt;&lt;div&gt;+ clock&lt;/div&gt;&lt;div&gt;+ font&lt;/div&gt;&lt;div&gt;+ running&lt;/div&gt;&lt;div&gt;+ game_over&lt;/div&gt;&lt;div&gt;+ time_game_over&lt;/div&gt;" style="text;strokeColor=none;fillColor=none;align=left;verticalAlign=top;spacingLeft=4;spacingRight=4;overflow=hidden;rotatable=0;points=[[0,0.5],[1,0.5]];portConstraint=eastwest;whiteSpace=wrap;html=1;" parent="1StV8Vy0w_5WwPUcjHgf-17" vertex="1">
          <mxGeometry y="26" width="160" height="184" as="geometry" />
        </mxCell>
        <mxCell id="1StV8Vy0w_5WwPUcjHgf-19" value="" style="line;strokeWidth=1;fillColor=none;align=left;verticalAlign=middle;spacingTop=-1;spacingLeft=3;spacingRight=3;rotatable=0;labelPosition=right;points=[];portConstraint=eastwest;strokeColor=inherit;" parent="1StV8Vy0w_5WwPUcjHgf-17" vertex="1">
          <mxGeometry y="210" width="160" height="8" as="geometry" />
        </mxCell>
        <mxCell id="1StV8Vy0w_5WwPUcjHgf-20" value="+ calculate_offset(self)&lt;div&gt;+ __init__(self)&lt;/div&gt;&lt;div&gt;# _add_extra_ghosts(self)&lt;/div&gt;&lt;div&gt;+ next_level(self)&lt;/div&gt;&lt;div&gt;+ handle_events(self)&lt;/div&gt;&lt;div&gt;+ update(self)&lt;/div&gt;&lt;div&gt;+ draw_ui(self)&lt;/div&gt;&lt;div&gt;+ run(self)&lt;/div&gt;" style="text;strokeColor=none;fillColor=none;align=left;verticalAlign=top;spacingLeft=4;spacingRight=4;overflow=hidden;rotatable=0;points=[[0,0.5],[1,0.5]];portConstraint=eastwest;whiteSpace=wrap;html=1;" parent="1StV8Vy0w_5WwPUcjHgf-17" vertex="1">
          <mxGeometry y="218" width="160" height="130" as="geometry" />
        </mxCell>
        <mxCell id="ywrht8191DWY8TM5pkUV-8" value="&lt;div&gt;&lt;br&gt;&lt;/div&gt;&lt;div&gt;&lt;br&gt;&lt;/div&gt;" style="endArrow=open;endSize=12;dashed=1;html=1;rounded=0;entryX=0.003;entryY=0.106;entryDx=0;entryDy=0;entryPerimeter=0;exitX=1.023;exitY=0.204;exitDx=0;exitDy=0;exitPerimeter=0;" parent="1" source="1StV8Vy0w_5WwPUcjHgf-14" target="1StV8Vy0w_5WwPUcjHgf-12" edge="1">
          <mxGeometry x="-0.2103" y="-1" width="160" relative="1" as="geometry">
            <mxPoint x="220" y="320" as="sourcePoint" />
            <mxPoint x="397" y="240" as="targetPoint" />
            <Array as="points">
              <mxPoint x="280" y="360" />
              <mxPoint x="280" y="200" />
            </Array>
            <mxPoint as="offset" />
          </mxGeometry>
        </mxCell>
        <mxCell id="ywrht8191DWY8TM5pkUV-22" value="" style="endArrow=open;html=1;endSize=12;startArrow=diamondThin;startSize=14;startFill=1;edgeStyle=orthogonalEdgeStyle;align=left;verticalAlign=bottom;rounded=0;exitX=1;exitY=0.5;exitDx=0;exitDy=0;entryX=0;entryY=0.257;entryDx=0;entryDy=0;entryPerimeter=0;" parent="1" source="1StV8Vy0w_5WwPUcjHgf-1" target="1StV8Vy0w_5WwPUcjHgf-10" edge="1">
          <mxGeometry x="-1" y="3" relative="1" as="geometry">
            <mxPoint x="230" y="139.86" as="sourcePoint" />
            <mxPoint x="390" y="139.86" as="targetPoint" />
          </mxGeometry>
        </mxCell>
        <mxCell id="ywrht8191DWY8TM5pkUV-23" value="" style="endArrow=open;endSize=12;dashed=1;html=1;rounded=0;exitX=0.185;exitY=0;exitDx=0;exitDy=0;exitPerimeter=0;entryX=0.724;entryY=1.023;entryDx=0;entryDy=0;entryPerimeter=0;" parent="1" source="1StV8Vy0w_5WwPUcjHgf-5" target="1StV8Vy0w_5WwPUcjHgf-12" edge="1">
          <mxGeometry width="160" relative="1" as="geometry">
            <mxPoint x="570" y="330" as="sourcePoint" />
            <mxPoint x="730" y="330" as="targetPoint" />
          </mxGeometry>
        </mxCell>
        <mxCell id="ywrht8191DWY8TM5pkUV-24" value="" style="endArrow=block;endFill=1;html=1;edgeStyle=orthogonalEdgeStyle;align=left;verticalAlign=top;rounded=0;exitX=0.25;exitY=0;exitDx=0;exitDy=0;entryX=0.001;entryY=0.635;entryDx=0;entryDy=0;entryPerimeter=0;" parent="1" source="1StV8Vy0w_5WwPUcjHgf-17" target="1StV8Vy0w_5WwPUcjHgf-12" edge="1">
          <mxGeometry x="-1" relative="1" as="geometry">
            <mxPoint x="310" y="350" as="sourcePoint" />
            <mxPoint x="320" y="240" as="targetPoint" />
            <Array as="points">
              <mxPoint x="320" y="280" />
              <mxPoint x="321" y="259" />
            </Array>
          </mxGeometry>
        </mxCell>
        <mxCell id="ywrht8191DWY8TM5pkUV-28" value="" style="endArrow=block;endFill=1;html=1;edgeStyle=orthogonalEdgeStyle;align=left;verticalAlign=top;rounded=0;exitX=-0.019;exitY=0.116;exitDx=0;exitDy=0;exitPerimeter=0;entryX=1.017;entryY=0.581;entryDx=0;entryDy=0;entryPerimeter=0;" parent="1" source="1StV8Vy0w_5WwPUcjHgf-18" target="1StV8Vy0w_5WwPUcjHgf-16" edge="1">
          <mxGeometry x="-1" relative="1" as="geometry">
            <mxPoint x="240" y="498.55" as="sourcePoint" />
            <mxPoint x="90" y="498.55" as="targetPoint" />
          </mxGeometry>
        </mxCell>
        <mxCell id="ywrht8191DWY8TM5pkUV-26" value="" style="endArrow=block;endFill=1;html=1;edgeStyle=orthogonalEdgeStyle;align=left;verticalAlign=top;rounded=0;exitX=1;exitY=0.293;exitDx=0;exitDy=0;exitPerimeter=0;entryX=0;entryY=0.677;entryDx=0;entryDy=0;entryPerimeter=0;" parent="1" source="1StV8Vy0w_5WwPUcjHgf-18" target="1StV8Vy0w_5WwPUcjHgf-6" edge="1">
          <mxGeometry x="-1" relative="1" as="geometry">
            <mxPoint x="460" y="480" as="sourcePoint" />
            <mxPoint x="490" y="480" as="targetPoint" />
          </mxGeometry>
        </mxCell>
      </root>
    </mxGraphModel>
  </diagram>
</mxfile>
